<?xml version="1.0" encoding="UTF-8" standalone="no"?>
<!DOCTYPE svg PUBLIC "-//W3C//DTD SVG 1.1//EN"
 "http://www.w3.org/Graphics/SVG/1.1/DTD/svg11.dtd">
<!-- Generated by graphviz version 2.43.0 (0)
 -->
<!-- Title: dependencies Pages: 1 -->
<svg width="383pt" height="287pt"
 viewBox="0.00 0.00 383.00 287.00" xmlns="http://www.w3.org/2000/svg" xmlns:xlink="http://www.w3.org/1999/xlink">
<g id="graph0" class="graph" transform="scale(1 1) rotate(0) translate(4 283)">
<title>dependencies</title>
<polygon fill="white" stroke="transparent" points="-4,4 -4,-283 379,-283 379,4 -4,4"/>
<!-- app.py -->
<g id="node1" class="node">
<title>app.py</title>
<polygon fill="none" stroke="black" points="65,-144 0,-144 0,-108 65,-108 65,-144"/>
<text text-anchor="middle" x="32.5" y="-122.3" font-family="Times,serif" font-size="14.00">app.py</text>
</g>
<!-- load_data.py -->
<g id="node2" class="node">
<title>load_data.py</title>
<polygon fill="none" stroke="black" points="223,-198 116,-198 116,-162 223,-162 223,-198"/>
<text text-anchor="middle" x="169.5" y="-176.3" font-family="Times,serif" font-size="14.00">load_data.py</text>
</g>
<!-- app.py&#45;&gt;load_data.py -->
<g id="edge1" class="edge">
<title>app.py&#45;&gt;load_data.py</title>
<path fill="none" stroke="black" d="M65.15,-138.66C79.61,-144.45 97.17,-151.47 113.68,-158.07"/>
<polygon fill="black" stroke="black" points="112.66,-161.43 123.24,-161.9 115.26,-154.93 112.66,-161.43"/>
</g>
<!-- query_data.py -->
<g id="node3" class="node">
<title>query_data.py</title>
<polygon fill="none" stroke="black" points="228.5,-252 110.5,-252 110.5,-216 228.5,-216 228.5,-252"/>
<text text-anchor="middle" x="169.5" y="-230.3" font-family="Times,serif" font-size="14.00">query_data.py</text>
</g>
<!-- app.py&#45;&gt;query_data.py -->
<g id="edge2" class="edge">
<title>app.py&#45;&gt;query_data.py</title>
<path fill="none" stroke="black" d="M44.64,-144.03C56.61,-162.11 77.16,-189.68 101,-207 102.83,-208.33 104.72,-209.6 106.68,-210.82"/>
<polygon fill="black" stroke="black" points="105.11,-213.95 115.54,-215.83 108.56,-207.86 105.11,-213.95"/>
</g>
<!-- module_2.clean -->
<g id="node4" class="node">
<title>module_2.clean</title>
<polygon fill="none" stroke="black" points="233,-144 106,-144 106,-108 233,-108 233,-144"/>
<text text-anchor="middle" x="169.5" y="-122.3" font-family="Times,serif" font-size="14.00">module_2.clean</text>
</g>
<!-- app.py&#45;&gt;module_2.clean -->
<g id="edge3" class="edge">
<title>app.py&#45;&gt;module_2.clean</title>
<path fill="none" stroke="black" d="M65.15,-126C74.42,-126 84.97,-126 95.69,-126"/>
<polygon fill="black" stroke="black" points="95.99,-129.5 105.99,-126 95.99,-122.5 95.99,-129.5"/>
</g>
<!-- module_2.scrape -->
<g id="node5" class="node">
<title>module_2.scrape</title>
<polygon fill="none" stroke="black" points="238,-90 101,-90 101,-54 238,-54 238,-90"/>
<text text-anchor="middle" x="169.5" y="-68.3" font-family="Times,serif" font-size="14.00">module_2.scrape</text>
</g>
<!-- app.py&#45;&gt;module_2.scrape -->
<g id="edge4" class="edge">
<title>app.py&#45;&gt;module_2.scrape</title>
<path fill="none" stroke="black" d="M65.15,-113.34C79.61,-107.55 97.17,-100.53 113.68,-93.93"/>
<polygon fill="black" stroke="black" points="115.26,-97.07 123.24,-90.1 112.66,-90.57 115.26,-97.07"/>
</g>
<!-- flask -->
<g id="node6" class="node">
<title>flask</title>
<polygon fill="none" stroke="black" points="196.5,-36 142.5,-36 142.5,0 196.5,0 196.5,-36"/>
<text text-anchor="middle" x="169.5" y="-14.3" font-family="Times,serif" font-size="14.00">flask</text>
</g>
<!-- app.py&#45;&gt;flask -->
<g id="edge5" class="edge">
<title>app.py&#45;&gt;flask</title>
<path fill="none" stroke="black" d="M44.64,-107.97C56.61,-89.89 77.16,-62.32 101,-45 110.46,-38.13 121.91,-32.69 132.68,-28.56"/>
<polygon fill="black" stroke="black" points="134.05,-31.78 142.29,-25.12 131.7,-25.19 134.05,-31.78"/>
</g>
<!-- db.py -->
<g id="node7" class="node">
<title>db.py</title>
<polygon fill="none" stroke="black" points="352.5,-279 296.5,-279 296.5,-243 352.5,-243 352.5,-279"/>
<text text-anchor="middle" x="324.5" y="-257.3" font-family="Times,serif" font-size="14.00">db.py</text>
</g>
<!-- load_data.py&#45;&gt;db.py -->
<g id="edge6" class="edge">
<title>load_data.py&#45;&gt;db.py</title>
<path fill="none" stroke="black" d="M220.24,-198.15C226.33,-200.88 232.39,-203.85 238,-207 255.44,-216.8 257.18,-223.18 274,-234 278.32,-236.77 282.94,-239.54 287.56,-242.2"/>
<polygon fill="black" stroke="black" points="285.94,-245.3 296.37,-247.12 289.35,-239.19 285.94,-245.3"/>
</g>
<!-- psycopg -->
<g id="node8" class="node">
<title>psycopg</title>
<polygon fill="none" stroke="black" points="362,-225 287,-225 287,-189 362,-189 362,-225"/>
<text text-anchor="middle" x="324.5" y="-203.3" font-family="Times,serif" font-size="14.00">psycopg</text>
</g>
<!-- load_data.py&#45;&gt;psycopg -->
<g id="edge7" class="edge">
<title>load_data.py&#45;&gt;psycopg</title>
<path fill="none" stroke="black" d="M223.15,-189.29C240.48,-192.35 259.61,-195.73 276.49,-198.7"/>
<polygon fill="black" stroke="black" points="276.21,-202.21 286.67,-200.5 277.43,-195.32 276.21,-202.21"/>
</g>
<!-- psycopg.sql -->
<g id="node9" class="node">
<title>psycopg.sql</title>
<polygon fill="none" stroke="black" points="375,-171 274,-171 274,-135 375,-135 375,-171"/>
<text text-anchor="middle" x="324.5" y="-149.3" font-family="Times,serif" font-size="14.00">psycopg.sql</text>
</g>
<!-- load_data.py&#45;&gt;psycopg.sql -->
<g id="edge8" class="edge">
<title>load_data.py&#45;&gt;psycopg.sql</title>
<path fill="none" stroke="black" d="M223.15,-170.71C236.24,-168.4 250.36,-165.91 263.76,-163.54"/>
<polygon fill="black" stroke="black" points="264.6,-166.95 273.84,-161.76 263.39,-160.05 264.6,-166.95"/>
</g>
<!-- query_data.py&#45;&gt;db.py -->
<g id="edge9" class="edge">
<title>query_data.py&#45;&gt;db.py</title>
<path fill="none" stroke="black" d="M228.78,-244.28C247.94,-247.67 268.72,-251.33 285.92,-254.37"/>
<polygon fill="black" stroke="black" points="285.67,-257.88 296.13,-256.17 286.89,-250.98 285.67,-257.88"/>
</g>
<!-- query_data.py&#45;&gt;psycopg -->
<g id="edge10" class="edge">
<title>query_data.py&#45;&gt;psycopg</title>
<path fill="none" stroke="black" d="M228.78,-223.72C244.56,-220.93 261.44,-217.95 276.51,-215.29"/>
<polygon fill="black" stroke="black" points="277.39,-218.69 286.63,-213.51 276.17,-211.8 277.39,-218.69"/>
</g>
<!-- query_data.py&#45;&gt;psycopg.sql -->
<g id="edge11" class="edge">
<title>query_data.py&#45;&gt;psycopg.sql</title>
<path fill="none" stroke="black" d="M220.24,-215.85C226.33,-213.12 232.39,-210.15 238,-207 255.44,-197.2 257.18,-190.82 274,-180 275.91,-178.77 277.87,-177.55 279.87,-176.33"/>
<polygon fill="black" stroke="black" points="281.92,-179.19 288.78,-171.11 278.38,-173.15 281.92,-179.19"/>
</g>
<!-- urllib3 -->
<g id="node10" class="node">
<title>urllib3</title>
<polygon fill="none" stroke="black" points="356.5,-50 292.5,-50 292.5,-14 356.5,-14 356.5,-50"/>
<text text-anchor="middle" x="324.5" y="-28.3" font-family="Times,serif" font-size="14.00">urllib3</text>
</g>
<!-- module_2.scrape&#45;&gt;urllib3 -->
<g id="edge12" class="edge">
<title>module_2.scrape&#45;&gt;urllib3</title>
<path fill="none" stroke="black" d="M238.05,-54.34C253.11,-50.4 268.63,-46.34 282.25,-42.78"/>
<polygon fill="black" stroke="black" points="283.46,-46.09 292.25,-40.17 281.69,-39.31 283.46,-46.09"/>
</g>
<!-- bs4 -->
<g id="node11" class="node">
<title>bs4</title>
<polygon fill="none" stroke="black" points="351.5,-104 297.5,-104 297.5,-68 351.5,-68 351.5,-104"/>
<text text-anchor="middle" x="324.5" y="-82.3" font-family="Times,serif" font-size="14.00">bs4</text>
</g>
<!-- module_2.scrape&#45;&gt;bs4 -->
<g id="edge13" class="edge">
<title>module_2.scrape&#45;&gt;bs4</title>
<path fill="none" stroke="black" d="M238.05,-78.18C254.93,-79.73 272.4,-81.32 287.11,-82.67"/>
<polygon fill="black" stroke="black" points="287,-86.17 297.28,-83.6 287.64,-79.2 287,-86.17"/>
</g>
</g>
</svg>
